<svg preserveAspectRatio="xMidYMid meet" viewBox="552.9599999999999 126.57534246575342 887.0400000000001 301.09589041095893" xmlns="http://www.w3.org/2000/svg" version="1.0" style="max-height: 500px" width="887.0400000000001" height="301.09589041095893">

<g stroke="none" fill="#000000" transform="translate(0.000000,560.000000) scale(0.100000,-0.100000)">
<path d="M6765 3827 c-341 -167 -718 -351 -837 -410 -131 -63 -221 -113 -227&#10;-126 -14 -25 -14 -77 -1 -102 7 -12 142 -85 333 -180 177 -89 327 -165 334&#10;-171 9 -7 13 -106 15 -389 l3 -379 25 -24 c16 -15 78 -41 170 -71 303 -100&#10;475 -188 770 -395 59 -41 84 -37 185 33 221 151 385 240 581 312 55 19 143 52&#10;197 72 148 54 137 16 137 459 l0 373 112 60 c62 33 113 59 115 58 1 -1 3 -109&#10;4 -239 2 -209 1 -240 -14 -256 -56 -62 -57 -150 -2 -211 l33 -36 -19 -120&#10;c-10 -66 -29 -181 -43 -255 -16 -91 -21 -140 -15 -152 36 -67 224 -76 296 -14&#10;l27 23 -12 74 c-7 41 -27 155 -46 254 l-33 180 37 41 c61 67 64 136 9 206&#10;l-29 37 -2 278 -3 278 115 62 c155 83 181 117 148 189 -14 29 -73 59 -1113&#10;566 -557 272 -570 278 -602 278 -17 0 -276 -121 -648 -303z m974 -51 c174 -85&#10;458 -224 631 -308 173 -85 348 -169 388 -188 39 -18 72 -36 72 -39 0 -4 -35&#10;-24 -77 -44 l-78 -38 -310 46 c-170 25 -418 61 -551 79 -235 33 -242 35 -275&#10;65 -60 55 -129 62 -197 21 -126 -77 -77 -271 72 -287 36 -5 57 0 102 22 64 31&#10;3 36 519 -41 171 -26 313 -50 318 -54 9 -8 -907 -460 -933 -460 -17 0 -372&#10;171 -1140 548 l-285 140 425 209 c234 114 549 270 700 345 151 75 281 137 289&#10;137 8 1 157 -68 330 -153z m-755 -1232 c250 -123 413 -197 432 -197 21 -1 164&#10;64 435 196 385 187 404 195 411 174 3 -12 6 -137 7 -278 l1 -256 -202 -78&#10;c-243 -93 -299 -120 -483 -236 -78 -48 -148 -91 -156 -94 -9 -3 -67 29 -139&#10;75 -193 126 -413 229 -628 295 l-92 28 0 284 c0 155 3 283 7 283 4 0 187 -88&#10;407 -196z"/>
<path d="M12100 3565 l0 -154 -49 24 c-100 51 -248 24 -316 -57 -58 -69 -70&#10;-106 -70 -213 0 -92 2 -104 30 -154 52 -95 133 -141 247 -141 57 0 127 25 143&#10;50 11 18 26 10 23 -12 -3 -22 1 -23 70 -26 l72 -3 0 421 0 420 -75 0 -75 0 0&#10;-155z m-69 -268 c84 -56 92 -185 15 -256 -19 -18 -40 -25 -78 -28 -63 -5 -107&#10;18 -135 69 -24 46 -23 134 2 172 44 66 132 86 196 43z"/>
<path d="M10143 3700 c-88 -18 -158 -71 -187 -142 -18 -43 -21 -134 -5 -175&#10;24 -66 108 -125 224 -158 154 -45 203 -108 136 -176 -26 -26 -36 -29 -91 -29&#10;-73 0 -108 16 -170 76 l-46 44 -52 -53 -53 -54 33 -44 c23 -30 56 -55 101 -78&#10;59 -30 80 -35 156 -39 195 -9 313 81 314 242 1 113 -54 179 -195 231 -167 63&#10;-182 70 -197 96 -20 36 -7 75 32 99 56 34 127 22 202 -36 l35 -27 49 44 c27&#10;24 49 49 50 55 2 19 -68 75 -124 100 -58 26 -151 36 -212 24z"/>
<path d="M10703 3617 l-52 -10 -3 -76 -3 -76 -47 -3 -48 -3 0 -70 0 -69 49 0&#10;49 0 4 -157 c4 -187 15 -222 89 -261 37 -20 55 -23 111 -20 37 2 71 8 76 13 4&#10;6 6 36 4 68 l-4 57 -42 0 c-70 0 -76 14 -76 168 l0 132 60 0 60 0 0 70 0 70&#10;-60 0 c-68 0 -66 -5 -61 118 l2 62 -28 -1 c-15 -1 -51 -6 -80 -12z"/>
<path d="M11032 3243 c6 -221 13 -260 61 -312 55 -59 172 -79 253 -42 23 10&#10;45 24 48 30 11 18 24 13 28 -11 3 -21 8 -23 73 -23 l70 0 0 283 0 282 -77 0&#10;-78 0 0 -170 c0 -191 -9 -228 -59 -254 -35 -19 -84 -21 -113 -5 -39 21 -48 67&#10;-48 254 l0 175 -81 0 -82 0 5 -207z"/>
<path d="M12340 3383 c16 -38 67 -159 114 -270 l86 -201 -60 -131 c-33 -71&#10;-60 -132 -60 -135 0 -4 38 -6 83 -6 l84 0 45 103 c49 108 288 692 288 702 0 3&#10;-37 5 -82 3 l-83 -3 -62 -160 c-34 -88 -64 -164 -66 -170 -5 -13 -31 47 -92&#10;208 l-48 127 -88 0 -88 0 29 -67z"/>
<path d="M11529 2628 c-16 -13 -309 -767 -309 -794 0 -12 15 -14 82 -12 l83 3&#10;29 78 29 77 166 0 166 0 30 -78 31 -77 87 -3 c48 -1 87 -1 87 2 0 4 -289 743&#10;-310 794 -9 20 -16 22 -83 22 -44 0 -79 -5 -88 -12z m137 -353 l51 -145 -110&#10;0 c-100 0 -109 1 -102 18 3 9 27 74 52 145 26 70 49 127 52 127 3 0 29 -65 57&#10;-145z"/>
<path d="M10085 2555 c-30 -29 -32 -55 -7 -86 22 -27 75 -30 99 -6 23 23 19&#10;78 -8 99 -29 25 -55 22 -84 -7z"/>
<path d="M10587 2523 c1 -32 2 -169 2 -305 l1 -248 50 0 50 0 0 125 c0 141 11&#10;177 57 192 38 12 67 6 89 -18 16 -18 19 -42 22 -160 l4 -139 49 0 49 0 0 143&#10;c0 163 -8 202 -50 242 -24 23 -41 29 -87 33 -50 3 -63 0 -95 -22 l-38 -25 0&#10;119 0 120 -52 0 -53 0 2 -57z"/>
<path d="M10353 2513 l-33 -4 0 -65 0 -64 -35 0 c-35 0 -35 0 -35 -45 0 -45 0&#10;-45 35 -45 l35 0 0 -140 c0 -127 2 -142 20 -160 12 -12 33 -20 54 -20 l35 0&#10;-6 160 -6 160 46 0 47 0 0 45 0 45 -45 0 -45 0 0 70 c0 76 5 72 -67 63z"/>
<path d="M12181 2387 c-80 -25 -142 -124 -122 -194 21 -74 63 -105 189 -143&#10;74 -23 102 -40 102 -65 0 -21 -41 -45 -75 -45 -36 0 -104 30 -124 53 -7 10&#10;-19 17 -25 17 -16 -1 -86 -68 -86 -84 0 -27 78 -85 137 -102 101 -29 233 -5&#10;285 53 54 59 59 157 11 213 -32 39 -68 57 -157 82 -102 28 -131 60 -84 92 37&#10;26 74 20 143 -23 18 -12 27 -9 68 19 26 17 47 35 47 40 0 17 -81 77 -119 88&#10;-47 15 -144 14 -190 -1z"/>
<path d="M12814 2381 c-23 -10 -45 -24 -48 -30 -11 -17 -26 -13 -26 8 0 17 -9&#10;20 -71 23 -39 2 -71 2 -72 1 -1 -1 -1 -128 1 -282 l3 -281 74 0 75 0 0 178 c0&#10;205 9 237 72 260 30 12 41 12 64 0 49 -23 54 -46 54 -250 l0 -188 75 0 c65 0&#10;75 2 76 18 0 9 2 93 4 187 4 146 7 173 23 195 29 39 66 53 105 41 57 -19 62&#10;-36 65 -248 l4 -193 75 0 75 0 -4 223 c-3 238 -7 254 -60 304 -76 71 -213 70&#10;-289 -3 l-26 -24 -19 21 c-49 56 -155 74 -230 40z"/>
<path d="M13704 2384 c-60 -21 -119 -76 -150 -141 -55 -111 -30 -265 55 -351&#10;57 -57 106 -77 191 -77 64 0 82 4 122 28 l47 28 7 -26 c6 -24 10 -25 75 -25&#10;l69 0 0 280 0 280 -75 0 c-75 0 -75 0 -75 -27 l0 -26 -23 21 c-54 51 -158 66&#10;-243 36z m210 -154 c43 -38 60 -88 52 -147 -20 -146 -195 -181 -263 -53 -58&#10;110 9 230 128 230 40 0 55 -6 83 -30z"/>
<path d="M9414 2308 c12 -40 42 -133 67 -205 l43 -133 48 0 c56 0 52 -7 99&#10;148 17 57 34 101 37 97 3 -3 22 -59 42 -123 l36 -117 53 0 53 0 64 195 c35&#10;107 64 198 64 203 0 4 -23 7 -50 7 -58 0 -52 9 -96 -145 -15 -55 -30 -103 -34&#10;-107 -3 -5 -23 51 -45 122 l-38 130 -48 0 -48 0 -36 -113 c-19 -62 -35 -119&#10;-35 -125 0 -7 -4 -12 -9 -12 -4 0 -16 28 -25 63 -10 34 -26 90 -37 125 l-21&#10;62 -53 0 -53 0 22 -72z"/>
<path d="M10080 2175 l0 -205 50 0 50 0 0 205 0 205 -50 0 -50 0 0 -205z"/>
</g>
</svg>